<?xml version="1.0" encoding="utf-8"?>
<!-- Generator: Adobe Illustrator 16.0.0, SVG Export Plug-In . SVG Version: 6.00 Build 0)  -->
<!DOCTYPE svg PUBLIC "-//W3C//DTD SVG 1.1//EN" "http://www.w3.org/Graphics/SVG/1.1/DTD/svg11.dtd">
<svg version="1.1" id="Layer_1" xmlns="http://www.w3.org/2000/svg" xmlns:xlink="http://www.w3.org/1999/xlink" x="0px" y="0px"
	 width="60.591px" height="60.728px" viewBox="0 0 60.591 60.728" enable-background="new 0 0 60.591 60.728" xml:space="preserve">
<g>
	<path fill="#9B9B9C" d="M38.658,55.731c-0.514-0.232-1.075-0.289-1.619-0.171c-1.409,0.305-2.309,1.695-2.005,3.104
		c0.304,1.41,1.698,2.308,3.106,2.004c1.408-0.304,2.307-1.697,2.004-3.106c-0.015-0.064-0.035-0.128-0.053-0.191
		c-0.034-0.115-0.001-0.237,0.086-0.315l6.694-6.065c0.097-0.088,0.24-0.105,0.354-0.043c0.672,0.37,1.451,0.484,2.2,0.323
		c1.717-0.369,2.813-2.07,2.442-3.788c-0.37-1.718-2.07-2.814-3.787-2.443c-0.748,0.162-1.413,0.587-1.872,1.199
		c-0.045,0.061-0.111,0.102-0.18,0.117c-0.052,0.011-0.108,0.008-0.161-0.009l-8.598-2.762c-0.112-0.037-0.194-0.136-0.209-0.252
		c-0.011-0.065-0.018-0.13-0.031-0.196c-0.306-1.408-1.699-2.307-3.105-2.003c-1.409,0.305-2.308,1.698-2.004,3.106
		c0.305,1.408,1.697,2.307,3.106,2.003c0.543-0.119,1.031-0.403,1.402-0.825c0.081-0.092,0.21-0.125,0.324-0.088l8.61,2.767
		c0.12,0.039,0.204,0.147,0.213,0.271c0.012,0.18,0.031,0.326,0.06,0.46c0.031,0.136,0.073,0.276,0.136,0.445
		c0.043,0.119,0.011,0.251-0.083,0.335l-6.702,6.074C38.899,55.762,38.769,55.781,38.658,55.731z"/>
	<path fill="#9B9B9C" d="M60.494,53.261L56.708,36.85c-0.198-0.593-0.676-1.05-1.276-1.222c0,0-11.329-3.325-15.48-4.488
		c2.789-3.287,4.545-7.959,4.545-13.152C44.497,8.07,38.126,0,30.295,0c-7.831,0-14.201,8.07-14.201,17.989
		c0,5.225,1.779,9.923,4.598,13.212L5.16,35.628C4.559,35.8,4.082,36.257,3.883,36.85L0.097,53.261
		c-0.192,0.577-0.096,1.212,0.261,1.704c0.355,0.495,0.928,0.787,1.535,0.787h29.664v-3.786H4.52l2.64-12.971l17.021-4.796
		c1.855,1.128,3.923,1.778,6.115,1.778c2.213,0,4.301-0.663,6.17-1.812l16.966,4.83l2.564,12.597c0,0-0.017,0.522-0.034,0.616
		c-0.048,0.243-0.434,0.586-0.434,0.586l0.505,2.958h2.665c0.607,0,1.181-0.292,1.534-0.787
		C60.59,54.473,60.686,53.838,60.494,53.261z M19.882,17.989c0-7.698,4.768-14.202,10.413-14.202
		c5.646,0,10.415,6.504,10.415,14.202c0,7.697-4.769,14.201-10.415,14.201C24.65,32.189,19.882,25.686,19.882,17.989z"/>
</g>
</svg>
