<?xml version="1.0" encoding="utf-8"?>
<!-- Generator: Adobe Illustrator 16.0.0, SVG Export Plug-In . SVG Version: 6.00 Build 0)  -->
<!DOCTYPE svg PUBLIC "-//W3C//DTD SVG 1.1//EN" "http://www.w3.org/Graphics/SVG/1.1/DTD/svg11.dtd">
<svg version="1.1" id="Layer_1" xmlns="http://www.w3.org/2000/svg" xmlns:xlink="http://www.w3.org/1999/xlink" x="0px" y="0px"
	 width="55.17px" height="46.901px" viewBox="0 0 55.17 46.901" enable-background="new 0 0 55.17 46.901" xml:space="preserve">
<polygon fill="none" points="543.736,1105.606 669.352,1071.415 578.111,980.028 "/>
<g>
	<path fill="#9B9B9C" d="M19.712,28.813h19.209c0.407,0,0.737-0.329,0.737-0.735c0-0.407-0.331-0.737-0.737-0.737H19.712
		c-0.406,0-0.735,0.331-0.735,0.737C18.977,28.484,19.306,28.813,19.712,28.813z"/>
	<path fill="#9B9B9C" d="M19.712,33.275h19.209c0.407,0,0.737-0.33,0.737-0.736c0-0.406-0.331-0.736-0.737-0.736H19.712
		c-0.406,0-0.735,0.331-0.735,0.736C18.977,32.945,19.306,33.275,19.712,33.275z"/>
	<path fill="#9B9B9C" d="M19.712,38.128h14.272c0.407,0,0.737-0.33,0.737-0.735c0-0.407-0.331-0.737-0.737-0.737H19.712
		c-0.406,0-0.735,0.33-0.735,0.737C18.977,37.799,19.306,38.128,19.712,38.128z"/>
	<path fill="#9B9B9C" d="M10.79,36.407c2.894,0,5.249-2.354,5.249-5.249c0-2.894-2.355-5.249-5.249-5.249s-5.249,2.355-5.249,5.249
		C5.541,34.052,7.896,36.407,10.79,36.407z M10.79,27.054c2.263,0,4.104,1.841,4.104,4.104c0,2.263-1.841,4.104-4.104,4.104
		s-4.104-1.841-4.104-4.104C6.686,28.895,8.527,27.054,10.79,27.054z"/>
	<path fill="#9B9B9C" d="M50.261,0H11.976C9.313,0,7.147,2.166,7.147,4.828v5.913h-2.32C2.166,10.741,0,12.907,0,15.569v26.504
		c0,2.662,2.166,4.828,4.828,4.828h38.286c2.661,0,4.826-2.166,4.826-4.828V36.16h2.321c2.661,0,4.826-2.167,4.826-4.828V4.828
		C55.086,2.166,52.921,0,50.261,0z M45.647,23.341v17.996c0,1.805-1.468,3.272-3.271,3.272H5.564c-1.805,0-3.272-1.467-3.272-3.272
		V23.341H45.647z M45.647,16.304v4.743H2.292v-4.743c0-1.805,1.468-3.272,3.272-3.272h36.812
		C44.18,13.032,45.647,14.5,45.647,16.304z M43.113,10.741H9.439V5.563c0-1.805,1.467-3.272,3.272-3.272h36.812
		c1.805,0,3.272,1.467,3.272,3.272v25.034c0,1.804-1.467,3.271-3.272,3.271h-1.583v-18.3C47.939,12.907,45.774,10.741,43.113,10.741
		z"/>
</g>
</svg>
