<?xml version="1.0" encoding="utf-8"?>
<!-- Generator: Adobe Illustrator 16.0.0, SVG Export Plug-In . SVG Version: 6.00 Build 0)  -->
<!DOCTYPE svg PUBLIC "-//W3C//DTD SVG 1.1//EN" "http://www.w3.org/Graphics/SVG/1.1/DTD/svg11.dtd">
<svg version="1.1" id="Layer_1" xmlns="http://www.w3.org/2000/svg" xmlns:xlink="http://www.w3.org/1999/xlink" x="0px" y="0px"
	 width="55.17px" height="44.008px" viewBox="0 0 55.17 44.008" enable-background="new 0 0 55.17 44.008" xml:space="preserve">
<polygon fill="none" points="543.736,1105.606 669.352,1071.415 578.111,980.028 "/>
<path fill="#9B9B9C" d="M50.4,0H12.306c-2.631,0-4.77,2.141-4.77,4.771v6.113H5.049c-2.63,0-4.77,2.14-4.77,4.771v23.582
	c0,2.63,2.14,4.771,4.77,4.771h38.095c2.63,0,4.77-2.141,4.77-4.771v-6.113H50.4c2.63,0,4.77-2.14,4.77-4.771V4.771
	C55.17,2.141,53.031,0,50.4,0z M43.057,13.17l-18.96,12.894L5.135,13.17H43.057z M25.037,10.884L12.393,2.286h37.921L37.67,10.884
	H25.037z M9.821,4.771c0-0.452,0.13-0.871,0.341-1.236l10.808,7.349H9.821V4.771z M45.628,39.237c0,1.371-1.115,2.485-2.484,2.485
	H5.049c-1.369,0-2.484-1.115-2.484-2.485V15.655c0-0.452,0.131-0.87,0.342-1.235l21.19,14.408l21.19-14.409
	c0.211,0.365,0.342,0.783,0.342,1.235V39.237z M52.885,28.353c0,1.37-1.115,2.485-2.484,2.485h-2.486V15.655
	c0-2.63-2.14-4.771-4.77-4.771h-1.41l10.808-7.35c0.212,0.366,0.343,0.784,0.343,1.237V28.353z"/>
</svg>
