<?xml version="1.0" encoding="utf-8"?>
<!-- Generator: Adobe Illustrator 16.0.0, SVG Export Plug-In . SVG Version: 6.00 Build 0)  -->
<!DOCTYPE svg PUBLIC "-//W3C//DTD SVG 1.1//EN" "http://www.w3.org/Graphics/SVG/1.1/DTD/svg11.dtd">
<svg version="1.1" id="Layer_1" xmlns="http://www.w3.org/2000/svg" xmlns:xlink="http://www.w3.org/1999/xlink" x="0px" y="0px"
	 width="55.17px" height="54.824px" viewBox="0 0 55.17 54.824" enable-background="new 0 0 55.17 54.824" xml:space="preserve">
<polygon fill="none" points="543.736,1105.606 669.352,1071.415 578.111,980.028 "/>
<g>
	<circle fill="#9B9B9C" cx="13.922" cy="24.04" r="1.686"/>
	<circle fill="#9B9B9C" cx="27.412" cy="24.04" r="1.686"/>
	<circle fill="#9B9B9C" cx="40.905" cy="24.04" r="1.686"/>
	<circle fill="#9B9B9C" cx="13.922" cy="34.158" r="1.686"/>
	<circle fill="#9B9B9C" cx="27.412" cy="34.158" r="1.686"/>
	<circle fill="#9B9B9C" cx="40.905" cy="44.278" r="1.686"/>
	<circle fill="#9B9B9C" cx="27.412" cy="44.278" r="1.686"/>
	<circle fill="#9B9B9C" cx="13.922" cy="44.278" r="1.686"/>
	<path fill="#9B9B9C" d="M49.338,6.747h-4.633V3.8c0-2.095-1.705-3.8-3.8-3.8c-2.097,0-3.803,1.705-3.803,3.8v2.947H17.721V3.8
		c0-2.095-1.704-3.8-3.799-3.8c-2.097,0-3.802,1.705-3.802,3.8v2.947H5.489C2.462,6.747,0,9.208,0,12.232v37.105
		c0,3.025,2.462,5.486,5.489,5.486h43.849c3.025,0,5.487-2.461,5.487-5.486V12.232C54.825,9.208,52.363,6.747,49.338,6.747z
		 M52.282,48.493c0,2.089-1.7,3.788-3.788,3.788c-0.126,0-0.252-0.005-0.42-0.021h-0.002l-0.046,0.002
		c-0.123,0.009-0.249,0.018-0.375,0.018H7.175c-0.124,0-0.247-0.009-0.466-0.018c-0.126,0.013-0.251,0.018-0.378,0.018
		c-2.088,0-3.788-1.699-3.788-3.788c0-0.126,0.007-0.252,0.021-0.46c-0.011-0.126-0.021-0.253-0.021-0.382V16.036h49.74v31.616
		c0,0.131-0.01,0.261-0.018,0.467C52.277,48.241,52.282,48.367,52.282,48.493z M13.922,2.542c0.693,0,1.257,0.564,1.257,1.258v2.947
		h-2.518V3.8C12.661,3.106,13.227,2.542,13.922,2.542z M40.905,2.542c0.694,0,1.258,0.564,1.258,1.258v2.947h-2.516V3.8
		C39.647,3.106,40.212,2.542,40.905,2.542z M2.542,13.077c0-2.089,1.7-3.789,3.788-3.789h41.321c0.126,0,0.251,0.009,0.46,0.019
		c0.126-0.011,0.253-0.019,0.382-0.019c2.088,0,3.788,1.699,3.788,3.789c0,0.119-0.005,0.236-0.017,0.416H2.561
		c0-0.012,0.001-0.024,0.002-0.037C2.55,13.33,2.542,13.205,2.542,13.077z"/>
	<path fill="#9B9B9C" d="M40.905,29.942c-2.328,0-4.216,1.887-4.216,4.216c0,2.328,1.889,4.216,4.216,4.216
		c2.329,0,4.217-1.888,4.217-4.216C45.122,31.83,43.234,29.942,40.905,29.942z M40.905,36.688c-1.397,0-2.531-1.132-2.531-2.53
		s1.134-2.53,2.531-2.53c1.397,0,2.53,1.132,2.53,2.53S42.303,36.688,40.905,36.688z"/>
</g>
</svg>
