<?xml version="1.0" encoding="utf-8"?>
<!-- Generator: Adobe Illustrator 16.0.0, SVG Export Plug-In . SVG Version: 6.00 Build 0)  -->
<!DOCTYPE svg PUBLIC "-//W3C//DTD SVG 1.1//EN" "http://www.w3.org/Graphics/SVG/1.1/DTD/svg11.dtd">
<svg version="1.1" id="Layer_1" xmlns="http://www.w3.org/2000/svg" xmlns:xlink="http://www.w3.org/1999/xlink" x="0px" y="0px"
	 width="55.17px" height="54.824px" viewBox="0 0 55.17 54.824" enable-background="new 0 0 55.17 54.824" xml:space="preserve">
<polygon fill="none" points="543.736,1105.606 669.352,1071.415 578.111,980.028 "/>
<g>
	<path fill="#9B9B9C" d="M52.387,24.506H49.52V19.13c0-1.52-1.234-2.756-2.75-2.756h-0.86V0.123H9.217v1.809H6.51v1.802H3.798v6.323
		H2.943c-1.519,0-2.755,1.234-2.755,2.75v39.449l0.004,0.286h0.014c0.047,0.479,0.223,0.927,0.516,1.31
		c0.495,0.649,1.249,1.021,2.067,1.021h40.417c1.154,0,2.2-0.777,2.483-1.824l9.233-25.316l0.017-0.261
		C54.938,25.753,53.865,24.506,52.387,24.506z M6.179,35.406V6.114H6.51v28.384L6.179,35.406z M11.968,24.506
		c-0.122,0-0.248,0.011-0.371,0.031V2.503h31.933v22.002H11.968z M43.418,52.333c-0.023,0.093-0.113,0.16-0.212,0.16H2.789
		c-0.104,0-0.157-0.062-0.172-0.083c-0.039-0.052-0.06-0.104-0.071-0.104c-0.001,0-0.002,0.001-0.004,0.004l6.676-18.297v0.004
		l2.3-6.31l0.238-0.662c0.024-0.097,0.113-0.165,0.212-0.165h40.419c0.042,0,0.127,0.14,0.162,0.419L43.418,52.333z M47.144,24.506
		h-1.235v-5.751h0.86c0.207,0,0.375,0.168,0.375,0.376V24.506z M8.885,27.98V4.306h0.332v22.767L8.885,27.98z M3.798,41.842
		l-1.23,3.362V12.807c0-0.208,0.168-0.375,0.375-0.375h0.855V41.842z"/>
	<path fill="#9B9B9C" d="M38.4,13.667H16.726c-0.654,0-1.186,0.535-1.186,1.19c0,0.656,0.532,1.19,1.186,1.19H38.4
		c0.654,0,1.186-0.534,1.186-1.19C39.586,14.202,39.054,13.667,38.4,13.667z"/>
	<path fill="#9B9B9C" d="M16.726,9.725h9.029c0.656,0,1.189-0.534,1.189-1.189c0-0.656-0.533-1.19-1.189-1.19h-9.029
		c-0.654,0-1.186,0.534-1.186,1.19C15.54,9.191,16.072,9.725,16.726,9.725z"/>
	<path fill="#9B9B9C" d="M38.4,19.991H16.726c-0.654,0-1.186,0.531-1.186,1.185c0,0.656,0.532,1.19,1.186,1.19H38.4
		c0.654,0,1.186-0.534,1.186-1.19C39.586,20.522,39.054,19.991,38.4,19.991z"/>
</g>
</svg>
