<?xml version="1.0" encoding="utf-8"?>
<!-- Generator: Adobe Illustrator 16.0.0, SVG Export Plug-In . SVG Version: 6.00 Build 0)  -->
<!DOCTYPE svg PUBLIC "-//W3C//DTD SVG 1.1//EN" "http://www.w3.org/Graphics/SVG/1.1/DTD/svg11.dtd">
<svg version="1.1" id="Layer_1" xmlns="http://www.w3.org/2000/svg" xmlns:xlink="http://www.w3.org/1999/xlink" x="0px" y="0px"
	 width="60.591px" height="46.193px" viewBox="0 0 60.591 46.193" enable-background="new 0 0 60.591 46.193" xml:space="preserve">
<path fill="#9B9B9C" d="M2.718,8.604v34.882h48.009V15.853v-5.89H23.099V9.96c-0.475,0-0.935-0.25-1.184-0.693L18.23,2.719H2.718
	V8.604z M53.444,17.21V33.81l4.15-16.599H53.444z M0,44.84V8.604V1.357C0,0.609,0.607,0,1.358,0h17.665
	c0.542,0,1.006,0.314,1.227,0.772l3.641,6.475h28.195c0.75,0,1.357,0.606,1.357,1.357v5.889h5.889v0
	c0.108,0,0.217,0.016,0.327,0.043c0.729,0.182,1.171,0.919,0.989,1.644l-7.231,28.922c-0.122,0.625-0.674,1.096-1.332,1.096
	c-0.042,0-0.079,0-0.117-0.005H1.358c-0.748,0-1.354-0.607-1.354-1.353H0z"/>
<g>
	<path fill="#9B9B9C" d="M41.676,24.097c-0.115-0.193-0.299-0.331-0.519-0.387l-0.602-0.154c0.165-1.255-0.016-2.512-0.527-3.672
		l0.356-0.211c0.194-0.115,0.332-0.298,0.388-0.517s0.023-0.446-0.092-0.642c-0.229-0.383-0.767-0.523-1.155-0.295l-0.358,0.211
		c-0.772-1.005-1.789-1.767-2.97-2.226l0.154-0.603c0.115-0.451-0.157-0.912-0.607-1.027c-0.442-0.116-0.914,0.166-1.028,0.609
		l-0.154,0.603c-1.245-0.162-2.522,0.023-3.672,0.527l-0.212-0.357c-0.228-0.384-0.766-0.524-1.157-0.296
		c-0.194,0.115-0.333,0.299-0.388,0.518s-0.023,0.446,0.092,0.641l0.211,0.356c-1.005,0.773-1.767,1.789-2.226,2.968l-0.601-0.154
		c-0.449-0.114-0.916,0.166-1.029,0.609c-0.115,0.449,0.159,0.909,0.61,1.025l0.602,0.154c-0.165,1.256,0.016,2.513,0.528,3.673
		l-0.236,0.141c-0.305-0.42-0.644-0.81-1.012-1.164l0.292-0.369c0.289-0.366,0.226-0.898-0.141-1.188
		c-0.354-0.275-0.904-0.209-1.182,0.141l-0.293,0.37c-0.806-0.523-1.675-0.906-2.59-1.141c-0.779-0.2-1.593-0.287-2.402-0.268
		l-0.034-0.284c-0.051-0.423-0.409-0.742-0.833-0.742l-0.102,0.006c-0.223,0.024-0.423,0.135-0.564,0.311
		c-0.141,0.178-0.205,0.4-0.178,0.628l0.035,0.289c-1.698,0.377-3.263,1.254-4.468,2.506l-0.372-0.294
		c-0.352-0.274-0.904-0.209-1.184,0.141c-0.14,0.178-0.203,0.399-0.177,0.623s0.139,0.424,0.316,0.564l0.369,0.291
		c-0.523,0.81-0.906,1.679-1.14,2.59c-0.199,0.781-0.289,1.587-0.269,2.403l-0.279,0.035c-0.224,0.024-0.424,0.135-0.564,0.312
		c-0.142,0.178-0.205,0.4-0.177,0.631c0.045,0.347,0.293,0.626,0.627,0.711c0.07,0.019,0.141,0.028,0.21,0.028l0.392-0.041
		c0.376,1.697,1.254,3.261,2.507,4.468L13.58,37.52c-0.14,0.177-0.203,0.398-0.177,0.622c0.026,0.225,0.138,0.426,0.325,0.572
		c0.093,0.069,0.195,0.119,0.306,0.147c0.321,0.082,0.668-0.037,0.871-0.295l0.291-0.368c0.805,0.522,1.675,0.904,2.591,1.138
		c0.781,0.199,1.598,0.289,2.404,0.27l0.035,0.284c0.044,0.35,0.291,0.63,0.629,0.716c0.071,0.018,0.141,0.027,0.209,0.027
		l0.102-0.007c0.46-0.058,0.79-0.479,0.736-0.94l-0.035-0.288c1.696-0.376,3.26-1.254,4.467-2.508l0.371,0.292
		c0.094,0.075,0.201,0.127,0.313,0.155c0.321,0.082,0.668-0.035,0.872-0.294c0.14-0.176,0.203-0.396,0.177-0.62
		c-0.026-0.225-0.138-0.426-0.315-0.566l-0.37-0.292c0.523-0.807,0.907-1.676,1.141-2.589c0.2-0.784,0.29-1.591,0.268-2.404
		l0.285-0.034c0.458-0.057,0.788-0.477,0.735-0.939c-0.051-0.423-0.41-0.742-0.834-0.742l-0.395,0.041
		c-0.141-0.638-0.354-1.258-0.635-1.853l0.237-0.14c0.77,1.004,1.786,1.767,2.969,2.228l-0.153,0.599
		c-0.057,0.22-0.025,0.447,0.09,0.641c0.114,0.193,0.298,0.331,0.518,0.388c0.442,0.112,0.913-0.166,1.027-0.61l0.154-0.602
		c1.247,0.162,2.524-0.023,3.674-0.527l0.23,0.387c0.111,0.192,0.299,0.335,0.519,0.391c0.215,0.055,0.448,0.022,0.639-0.091
		c0.194-0.115,0.332-0.299,0.387-0.517c0.056-0.218,0.023-0.445-0.092-0.638l-0.231-0.392c1.005-0.772,1.767-1.789,2.226-2.97
		l0.602,0.153c0.069,0.018,0.141,0.027,0.212,0.027c0.385,0,0.72-0.26,0.815-0.632C41.824,24.519,41.792,24.291,41.676,24.097z
		 M38.767,23.972c-0.595,2.327-2.689,3.953-5.091,3.953c-0.438,0-0.876-0.056-1.304-0.165c-1.358-0.347-2.5-1.205-3.217-2.413
		c-0.716-1.209-0.919-2.622-0.572-3.98c0.596-2.329,2.69-3.956,5.094-3.956c0.437,0,0.874,0.055,1.301,0.164
		C37.786,18.293,39.485,21.163,38.767,23.972z M26.884,32.558c-0.684,2.673-2.887,4.729-5.686,5.258
		c-0.1,0.04-0.504,0.081-0.813,0.093c-0.725,0.044-1.468-0.025-2.181-0.207c-2.672-0.683-4.729-2.887-5.24-5.622l-0.033-0.153
		c-0.045-0.205-0.072-0.329-0.079-0.724c-0.042-0.745,0.027-1.479,0.208-2.182c0.808-3.16,3.651-5.367,6.914-5.367
		c0.593,0,1.187,0.075,1.766,0.223c0.667,0.171,1.324,0.453,1.958,0.843c0.099,0.058,0.194,0.12,0.335,0.214
		c0.29,0.197,0.553,0.409,0.787,0.632C26.738,27.355,27.529,30.033,26.884,32.558z M21.063,40.25L21.063,40.25v0.008V40.25z"/>
	<path fill="#9B9B9C" d="M31.493,22.111c-0.148,0.581-0.062,1.187,0.246,1.705s0.797,0.886,1.378,1.034
		c0.183,0.047,0.371,0.07,0.558,0.07c1.03,0,1.928-0.696,2.184-1.694c0.308-1.204-0.421-2.434-1.625-2.742
		C33.044,20.181,31.794,20.931,31.493,22.111z M34.221,22.808c-0.076,0.294-0.389,0.48-0.686,0.405
		c-0.145-0.037-0.267-0.129-0.344-0.259s-0.099-0.281-0.062-0.426c0.064-0.25,0.289-0.425,0.547-0.425
		c0.046,0,0.093,0.006,0.138,0.018C34.115,22.199,34.297,22.507,34.221,22.808z"/>
	<path fill="#9B9B9C" d="M20.541,28.564c-1.188-0.303-2.438,0.446-2.74,1.626c-0.307,1.202,0.421,2.431,1.624,2.739
		c0.183,0.046,0.37,0.07,0.557,0.07c1.031,0,1.93-0.697,2.185-1.693c0.149-0.583,0.062-1.188-0.246-1.708
		C21.613,29.081,21.124,28.713,20.541,28.564z M19.843,31.293c-0.145-0.037-0.267-0.129-0.344-0.259
		c-0.077-0.129-0.099-0.28-0.062-0.425c0.064-0.25,0.289-0.425,0.546-0.425c0.046,0,0.093,0.006,0.138,0.018
		c0.146,0.037,0.269,0.129,0.345,0.259c0.077,0.13,0.099,0.282,0.062,0.428C20.453,31.182,20.14,31.368,19.843,31.293z"/>
</g>
</svg>
