<?xml version="1.0" encoding="utf-8"?>
<!-- Generator: Adobe Illustrator 16.0.0, SVG Export Plug-In . SVG Version: 6.00 Build 0)  -->
<!DOCTYPE svg PUBLIC "-//W3C//DTD SVG 1.1//EN" "http://www.w3.org/Graphics/SVG/1.1/DTD/svg11.dtd">
<svg version="1.1" id="Layer_1" xmlns="http://www.w3.org/2000/svg" xmlns:xlink="http://www.w3.org/1999/xlink" x="0px" y="0px"
	 width="60.591px" height="59.373px" viewBox="0 0 60.591 59.373" enable-background="new 0 0 60.591 59.373" xml:space="preserve">
<g>
	<path fill="#9B9B9C" d="M59.717,17.793c-7.165-6.404-7.165-6.404-7.165-6.404V2.005C52.552,0.899,51.654,0,50.546,0H10.431
		C9.322,0,8.424,0.899,8.424,2.005v9.368c0,0,0,0-7.164,6.42c-0.629,0.563-1.257,1.068-1.259,1.864H0v37.709
		c0,1.109,0.897,2.006,2.006,2.006h56.966c1.106,0,2.005-0.897,2.005-2.006V19.657h-0.001
		C60.974,18.861,60.346,18.356,59.717,17.793z M56.474,20.194l-3.921,2.463V17.24L56.474,20.194z M48.541,4.011v11.665
		c0,0.005,0,0.008,0,0.012v9.458L30.488,36.353L12.437,25.146v-9.458c0-0.004,0-0.007,0-0.012V4.011H48.541z M8.424,22.657
		l-3.921-2.463l3.921-2.955V22.657z M4.011,55.361V23.643l25.419,16.774c0.325,0.2,0.691,0.301,1.058,0.301
		c0.367,0,0.734-0.101,1.059-0.301l25.418-16.774v31.718H4.011z"/>
	<path fill="#9B9B9C" d="M34.5,14.166h8.023c1.109,0,2.007-0.898,2.007-2.006c0-1.107-0.898-2.006-2.007-2.006H34.5
		c-1.107,0-2.005,0.898-2.005,2.006C32.495,13.268,33.393,14.166,34.5,14.166z"/>
	<path fill="#9B9B9C" d="M18.455,22.19h24.068c1.109,0,2.007-0.899,2.007-2.007s-0.898-2.006-2.007-2.006H18.455
		c-1.109,0-2.007,0.898-2.007,2.006S17.346,22.19,18.455,22.19z"/>
</g>
</svg>
