<?xml version="1.0" encoding="utf-8"?>
<!-- Generator: Adobe Illustrator 16.0.0, SVG Export Plug-In . SVG Version: 6.00 Build 0)  -->
<!DOCTYPE svg PUBLIC "-//W3C//DTD SVG 1.1//EN" "http://www.w3.org/Graphics/SVG/1.1/DTD/svg11.dtd">
<svg version="1.1" id="Layer_1" xmlns="http://www.w3.org/2000/svg" xmlns:xlink="http://www.w3.org/1999/xlink" x="0px" y="0px"
	 width="60.181px" height="50.778px" viewBox="0 0 60.181 50.778" enable-background="new 0 0 60.181 50.778" xml:space="preserve">
<g>
	<g>
		<path fill="#9B9B9C" d="M39.444,28.434h-2.109V25.81c0-3.995-3.25-7.245-7.244-7.245c-3.996,0-7.245,3.25-7.245,7.245v2.624
			h-2.107c-0.557,0-1.011,0.455-1.011,1.012v11.558c0,0.556,0.454,1.01,1.011,1.01h18.706c0.555,0,1.009-0.454,1.009-1.01V29.446
			C40.453,28.888,39.999,28.434,39.444,28.434z M30.091,20.587c2.879,0,5.223,2.342,5.223,5.223v2.624H24.867V25.81
			C24.867,22.929,27.21,20.587,30.091,20.587z M38.429,30.456v9.539H21.75v-9.539H38.429z"/>
		<path fill="#9B9B9C" d="M29.081,36.966v0.757c0,0.558,0.452,1.013,1.01,1.013c0.557,0,1.009-0.455,1.009-1.013v-0.757
			c0.938-0.403,1.559-1.332,1.559-2.36c0-1.416-1.153-2.569-2.568-2.569c-1.417,0-2.57,1.153-2.57,2.569
			C27.521,35.634,28.142,36.563,29.081,36.966z M30.091,34.06c0.3,0,0.545,0.246,0.545,0.546c0,0.304-0.245,0.549-0.545,0.549
			c-0.303,0-0.548-0.246-0.548-0.549C29.543,34.305,29.788,34.06,30.091,34.06z"/>
	</g>
	<g>
		<path fill="#9B9B9C" d="M1.881,50.778h56.42c1.039,0,1.879-0.843,1.879-1.881V1.881C60.181,0.842,59.34,0,58.301,0H1.881
			C0.843,0,0,0.842,0,1.881v47.017C0,49.936,0.843,50.778,1.881,50.778z M3.761,47.017V15.045h52.658v31.972H3.761z M56.419,3.761
			v7.522H3.761V3.761H56.419z"/>
		<path fill="#9B9B9C" d="M9.403,9.403c0.489,0,0.979-0.198,1.335-0.554c0.349-0.349,0.545-0.829,0.545-1.327
			c0-0.488-0.196-0.978-0.554-1.326c-0.696-0.705-1.956-0.705-2.652,0C7.721,6.545,7.522,7.024,7.522,7.522
			c0,0.498,0.199,0.978,0.555,1.335C8.426,9.206,8.915,9.403,9.403,9.403z"/>
		<path fill="#9B9B9C" d="M15.045,9.403c0.489,0,0.979-0.198,1.327-0.554c0.358-0.349,0.555-0.829,0.555-1.327
			c0-0.499-0.197-0.978-0.555-1.326c-0.696-0.705-1.956-0.705-2.652,0c-0.356,0.348-0.555,0.827-0.555,1.326
			c0,0.498,0.198,0.978,0.555,1.335C14.068,9.206,14.548,9.403,15.045,9.403z"/>
		<path fill="#9B9B9C" d="M20.688,9.403c0.499,0,0.979-0.198,1.326-0.545c0.358-0.357,0.555-0.837,0.555-1.335
			c0-0.499-0.197-0.978-0.555-1.335c-0.696-0.696-1.956-0.696-2.652,0.009c-0.356,0.348-0.554,0.837-0.554,1.326
			c0,0.498,0.198,0.978,0.554,1.335C19.71,9.206,20.189,9.403,20.688,9.403z"/>
	</g>
</g>
</svg>
