<?xml version="1.0" encoding="utf-8"?>
<!-- Generator: Adobe Illustrator 16.0.0, SVG Export Plug-In . SVG Version: 6.00 Build 0)  -->
<!DOCTYPE svg PUBLIC "-//W3C//DTD SVG 1.1//EN" "http://www.w3.org/Graphics/SVG/1.1/DTD/svg11.dtd">
<svg version="1.1" id="Layer_1" xmlns="http://www.w3.org/2000/svg" xmlns:xlink="http://www.w3.org/1999/xlink" x="0px" y="0px"
	 width="61px" height="58.4px" viewBox="0 0 61 58.4" enable-background="new 0 0 61 58.4" xml:space="preserve">
<path fill="#9B9B9C" d="M58.981,43.44h-2.169V7.487c0-1.075-0.872-1.947-1.948-1.947H35.155V2.073c0-1.077-0.872-1.948-1.948-1.948
	h-5.414c-1.076,0-1.948,0.872-1.948,1.948V5.54H6.136c-1.076,0-1.948,0.872-1.948,1.947V43.44H2.019
	c-1.075,0-1.948,0.872-1.948,1.948c0,1.077,0.873,1.948,1.948,1.948h18.414l-7.695,7.773c-0.673,0.84-0.537,2.066,0.303,2.738
	c0.359,0.287,0.789,0.427,1.217,0.427c0.571,0,1.137-0.251,1.521-0.731l10.104-10.208h2.668v6.284c0,1.076,0.873,1.948,1.948,1.948
	c1.076,0,1.948-0.872,1.948-1.948v-6.284h2.67l10.104,10.208c0.385,0.481,0.95,0.731,1.521,0.731c0.427,0,0.858-0.14,1.217-0.427
	c0.84-0.672,0.977-1.898,0.303-2.738l-7.695-7.773h18.413c1.075,0,1.948-0.871,1.948-1.948C60.929,44.312,60.056,43.44,58.981,43.44
	z M29.741,4.021h1.52V5.54h-1.52V4.021z M8.084,9.436h19.709h5.414h19.709V43.44H8.084V9.436z"/>
<path fill="#9B9B9C" d="M43.213,27.929c0.703,0,1.273-0.569,1.273-1.272v-6.357c0-0.083-0.009-0.167-0.026-0.248
	c-0.008-0.038-0.022-0.074-0.032-0.11c-0.013-0.043-0.022-0.086-0.04-0.128c-0.019-0.043-0.043-0.083-0.066-0.125
	c-0.016-0.03-0.031-0.063-0.05-0.093c-0.095-0.141-0.214-0.26-0.353-0.354c-0.03-0.02-0.064-0.033-0.095-0.051
	c-0.041-0.022-0.08-0.047-0.124-0.066c-0.041-0.017-0.084-0.026-0.129-0.039c-0.036-0.011-0.07-0.024-0.108-0.033
	c-0.083-0.017-0.166-0.025-0.25-0.025h-6.356c-0.701,0-1.27,0.57-1.27,1.271c0,0.703,0.569,1.272,1.27,1.272h3.288L27.956,33.759
	l-2.916-2.916c-0.496-0.496-1.301-0.496-1.797,0L16.887,37.2c-0.497,0.498-0.497,1.302,0,1.799c0.247,0.248,0.573,0.373,0.898,0.373
	c0.326,0,0.651-0.125,0.899-0.373l5.458-5.459l2.916,2.915c0.497,0.498,1.301,0.498,1.798,0l13.087-13.086v3.287
	C41.943,27.359,42.512,27.929,43.213,27.929z"/>
</svg>
