<?xml version="1.0" encoding="utf-8"?>
<!-- Generator: Adobe Illustrator 16.0.0, SVG Export Plug-In . SVG Version: 6.00 Build 0)  -->
<!DOCTYPE svg PUBLIC "-//W3C//DTD SVG 1.1//EN" "http://www.w3.org/Graphics/SVG/1.1/DTD/svg11.dtd">
<svg version="1.1" id="Layer_1" xmlns="http://www.w3.org/2000/svg" xmlns:xlink="http://www.w3.org/1999/xlink" x="0px" y="0px"
	 width="61px" height="61.015px" viewBox="0 0 61 61.015" enable-background="new 0 0 61 61.015" xml:space="preserve">
<g>
	<path fill="#9B9B9C" d="M59.108,57.202h-1.907V30.507c0-2.103-1.71-3.813-3.813-3.813h-5.72c-2.103,0-3.813,1.71-3.813,3.813
		v26.694h-1.907V11.44c0-2.103-1.71-3.813-3.813-3.813h-5.72c-2.103,0-3.813,1.71-3.813,3.813v45.761h-1.907V40.041
		c0-2.103-1.711-3.813-3.813-3.813h-5.72c-2.103,0-3.813,1.711-3.813,3.813v17.161H3.813v-7.627h3.813
		c1.053,0,1.907-0.854,1.907-1.907c0-1.053-0.854-1.907-1.907-1.907H3.813v-5.72c1.053,0,1.907-0.854,1.907-1.907
		c0-1.053-0.854-1.907-1.907-1.907v-5.72h3.813c1.053,0,1.907-0.854,1.907-1.906c0-1.053-0.854-1.907-1.907-1.907H3.813v-5.72
		c1.053,0,1.907-0.854,1.907-1.907c0-1.053-0.854-1.907-1.907-1.907v-5.72h3.813c1.053,0,1.907-0.854,1.907-1.907
		c0-1.053-0.854-1.907-1.907-1.907H3.813v-5.72C3.813,0.854,2.959,0,1.907,0C0.854,0,0,0.854,0,1.907v55.295
		c0,2.103,1.71,3.813,3.813,3.813h55.295c1.053,0,1.907-0.854,1.907-1.907C61.015,58.056,60.162,57.202,59.108,57.202z
		 M47.668,30.507h5.72v26.694h-5.72V30.507z M32.414,11.44h5.72v45.761h-5.72V11.44z M17.161,40.041h5.72v17.161h-5.72V40.041z"/>
</g>
</svg>
