<?xml version="1.0" encoding="utf-8"?>
<!-- Generator: Adobe Illustrator 16.0.0, SVG Export Plug-In . SVG Version: 6.00 Build 0)  -->
<!DOCTYPE svg PUBLIC "-//W3C//DTD SVG 1.1//EN" "http://www.w3.org/Graphics/SVG/1.1/DTD/svg11.dtd">
<svg version="1.1" id="Layer_1" xmlns="http://www.w3.org/2000/svg" xmlns:xlink="http://www.w3.org/1999/xlink" x="0px" y="0px"
	 width="61px" height="61.015px" viewBox="0 0 61 61.015" enable-background="new 0 0 61 61.015" xml:space="preserve">
<g>
	<path fill="#9B9B9C" d="M38.456,35.297h-6.805V25.215c0-0.683-0.555-1.238-1.237-1.238c-0.684,0-1.239,0.556-1.239,1.238v11.321
		c0,0.683,0.555,1.238,1.239,1.238h8.042c0.681,0,1.237-0.555,1.237-1.238C39.692,35.854,39.137,35.297,38.456,35.297z"/>
	<path fill="#9B9B9C" d="M30.414,21.053c-8.537,0-15.484,6.945-15.484,15.482c0,8.539,6.947,15.485,15.484,15.485
		c4.132,0,8.021-1.611,10.949-4.536c2.924-2.927,4.534-6.815,4.534-10.949c0-4.132-1.61-8.02-4.534-10.947
		C38.435,22.664,34.546,21.053,30.414,21.053z M30.414,49.543c-7.172,0-13.008-5.835-13.008-13.008
		c0-7.171,5.836-13.005,13.008-13.005c3.474,0,6.739,1.353,9.198,3.809c2.456,2.456,3.809,5.723,3.809,9.196
		c0,3.475-1.353,6.742-3.809,9.199C37.153,48.19,33.888,49.543,30.414,49.543z"/>
	<path fill="#9B9B9C" d="M54.738,7.485h-5.14V4.216C49.599,1.892,47.708,0,45.382,0c-2.326,0-4.218,1.892-4.218,4.216v3.269H19.661
		V4.216C19.661,1.892,17.77,0,15.446,0c-2.326,0-4.219,1.892-4.219,4.216v3.269H6.09c-3.358,0-6.09,2.73-6.09,6.086v41.167
		c0,3.356,2.732,6.086,6.09,6.086h48.648c3.356,0,6.087-2.73,6.087-6.086V13.571C60.826,10.215,58.095,7.485,54.738,7.485z
		 M58.005,53.801c0,2.318-1.885,4.203-4.203,4.203c-0.141,0-0.28-0.006-0.466-0.023h-0.002l-0.051,0.003
		c-0.136,0.01-0.276,0.02-0.416,0.02H7.961c-0.139,0-0.274-0.01-0.517-0.02c-0.141,0.014-0.279,0.02-0.42,0.02
		c-2.317,0-4.203-1.885-4.203-4.203c0-0.14,0.008-0.279,0.022-0.51c-0.012-0.14-0.022-0.281-0.022-0.424V17.791h55.184v35.077
		c0,0.146-0.01,0.29-0.02,0.518C58,53.521,58.005,53.661,58.005,53.801z M15.446,2.82c0.769,0,1.395,0.626,1.395,1.396v3.269h-2.794
		V4.216C14.047,3.446,14.674,2.82,15.446,2.82z M45.382,2.82c0.77,0,1.396,0.626,1.396,1.396v3.269h-2.792V4.216
		C43.987,3.446,44.613,2.82,45.382,2.82z M2.821,14.508c0-2.318,1.885-4.203,4.203-4.203h45.844c0.14,0,0.279,0.011,0.511,0.021
		c0.14-0.012,0.281-0.021,0.424-0.021c2.317,0,4.203,1.885,4.203,4.203c0,0.132-0.005,0.262-0.018,0.461H2.841
		c0.001-0.014,0.002-0.027,0.002-0.041C2.829,14.789,2.821,14.65,2.821,14.508z"/>
</g>
</svg>
