<?xml version="1.0" encoding="utf-8"?>
<!-- Generator: Adobe Illustrator 16.0.0, SVG Export Plug-In . SVG Version: 6.00 Build 0)  -->
<!DOCTYPE svg PUBLIC "-//W3C//DTD SVG 1.1//EN" "http://www.w3.org/Graphics/SVG/1.1/DTD/svg11.dtd">
<svg version="1.1" id="Layer_1" xmlns="http://www.w3.org/2000/svg" xmlns:xlink="http://www.w3.org/1999/xlink" x="0px" y="0px"
	 width="61px" height="58.039px" viewBox="0 0 61 58.039" enable-background="new 0 0 61 58.039" xml:space="preserve">
<polygon fill="none" points="543.736,1105.606 669.352,1071.415 578.111,980.028 "/>
<path fill="#9B9B9C" d="M60.055,4.037L56.96,0.943c-1.259-1.255-3.317-1.261-4.577,0.006L48.987,4.34l-0.144,0.145H4.051
	c-2.224,0-4.032,1.809-4.032,4.031v45.491c0,2.222,1.808,4.032,4.032,4.032h49.166c2.223,0,4.031-1.81,4.031-4.032V11.425
	l2.807-2.805C61.315,7.358,61.315,5.304,60.055,4.037z M52.368,13.233L47.769,8.63l1.532-1.53l4.604,4.599L52.368,13.233z
	 M18.615,37.787l27.618-27.62l4.604,4.603L23.214,42.39L18.615,37.787z M21.126,43.369l-4.806,1.31l1.315-4.805L21.126,43.369z
	 M53.216,54.444H4.051c-0.241,0-0.437-0.196-0.437-0.437V8.516c0-0.24,0.195-0.437,0.437-0.437h41.197L16.311,37.019l-0.202,0.206
	l-2.305,8.44l-1.331,1.33c-0.423,0.424-0.423,1.112,0,1.536c0.213,0.212,0.493,0.317,0.769,0.317c0.276,0,0.556-0.105,0.768-0.317
	l1.33-1.332l8.439-2.302L52.856,15.82l0.796-0.799v38.986C53.652,54.248,53.457,54.444,53.216,54.444z M58.52,7.083l-3.079,3.084
	l-4.604-4.605l3.078-3.083c0.418-0.413,1.097-0.413,1.511,0l3.094,3.094C58.938,5.987,58.938,6.671,58.52,7.083z"/>
</svg>
