<?xml version="1.0" encoding="utf-8"?>
<!-- Generator: Adobe Illustrator 16.0.0, SVG Export Plug-In . SVG Version: 6.00 Build 0)  -->
<!DOCTYPE svg PUBLIC "-//W3C//DTD SVG 1.1//EN" "http://www.w3.org/Graphics/SVG/1.1/DTD/svg11.dtd">
<svg version="1.1" id="Layer_1" xmlns="http://www.w3.org/2000/svg" xmlns:xlink="http://www.w3.org/1999/xlink" x="0px" y="0px"
	 width="55.17px" height="58.039px" viewBox="0 0 55.17 58.039" enable-background="new 0 0 55.17 58.039" xml:space="preserve">
<polygon fill="none" points="543.736,1105.606 669.352,1071.415 578.111,980.028 "/>
<g>
	<path fill="#9B9B9C" d="M22.237,16.796c-0.341-0.339-0.885-0.624-1.765-1.064c-0.321-0.16-0.875-0.438-1.133-0.607
		c0.684-0.886,1.074-1.874,1.074-2.73c0-0.609,0-1.368-0.35-2.058c-0.318-0.632-1.026-1.384-2.59-1.384s-2.272,0.752-2.59,1.383
		c-0.35,0.691-0.35,1.45-0.35,2.059c0,0.858,0.39,1.845,1.074,2.73c-0.273,0.179-0.877,0.48-1.159,0.621
		c-0.858,0.429-1.403,0.714-1.74,1.051c-0.75,0.75-0.807,1.996-0.811,2.237c-0.005,0.281,0.105,0.557,0.304,0.758
		c0.197,0.2,0.471,0.315,0.75,0.315h9.042c0.281,0,0.556-0.115,0.753-0.315c0.197-0.2,0.308-0.476,0.303-0.757
		C23.042,18.691,22.962,17.522,22.237,16.796z M16.392,15.754l0.561-0.528l-0.487-0.598c-0.604-0.741-0.95-1.555-0.95-2.233
		c0-0.531,0-1.134,0.243-1.616c0.282-0.56,0.859-0.844,1.714-0.844c0.855,0,1.432,0.284,1.713,0.843
		c0.244,0.483,0.244,1.086,0.244,1.617c0,0.678-0.347,1.491-0.952,2.234l-0.485,0.597l0.56,0.53c0.22,0.208,0.66,0.445,1.505,0.869
		c0.723,0.361,1.253,0.636,1.485,0.867c0.404,0.404,0.519,1.195,0.523,1.559c0,0.019-0.008,0.039-0.019,0.05
		c-0.017,0.016-0.034,0.024-0.055,0.024H12.95c-0.018,0-0.037-0.008-0.051-0.023c-0.013-0.013-0.021-0.033-0.021-0.053
		c0-0.042,0.017-1.051,0.523-1.557c0.23-0.231,0.738-0.493,1.485-0.867C15.729,16.202,16.169,15.965,16.392,15.754z"/>
	<g id="networking_color">
		<g>
			<path fill="#9B9B9C" d="M46.394,35.361H28.84v-7.523h-2.508v7.523H8.778c-1.386,0-2.508,1.123-2.508,2.508v8.777h2.508v-8.777
				h17.554v8.777h2.508v-8.777h17.554v8.777h2.507v-8.777C48.901,36.483,47.778,35.361,46.394,35.361z"/>
		</g>
	</g>
	<g id="networking">
		<g>
			<path fill-rule="evenodd" clip-rule="evenodd" fill="#9B9B9C" d="M8.698,29.058h37.775c1.604,0,2.906-1.301,2.906-2.906V2.906
				C49.379,1.301,48.078,0,46.474,0H8.698C7.093,0,5.791,1.301,5.791,2.906v23.247C5.791,27.757,7.093,29.058,8.698,29.058z
				 M8.698,2.906h37.775v23.247H8.698V2.906z M12.539,46.646H2.508C1.124,46.646,0,47.769,0,49.154v6.269
				c0,1.385,1.124,2.508,2.508,2.508h10.031c1.386,0,2.508-1.123,2.508-2.508v-6.269C15.046,47.769,13.924,46.646,12.539,46.646z
				 M12.539,55.423H2.508v-6.269h10.031V55.423z M32.601,46.646H22.57c-1.384,0-2.508,1.123-2.508,2.508v6.269
				c0,1.385,1.124,2.508,2.508,2.508h10.031c1.386,0,2.508-1.123,2.508-2.508v-6.269C35.108,47.769,33.986,46.646,32.601,46.646z
				 M32.601,55.423H22.57v-6.269h10.031V55.423z M52.663,46.646H42.632c-1.386,0-2.508,1.123-2.508,2.508v6.269
				c0,1.385,1.122,2.508,2.508,2.508h10.031c1.384,0,2.508-1.123,2.508-2.508v-6.269C55.17,47.769,54.047,46.646,52.663,46.646z
				 M52.663,55.423H42.632v-6.269h10.031V55.423z"/>
		</g>
	</g>
	<path fill="#9B9B9C" d="M26.404,11.082h6.898c0.381,0,0.691-0.311,0.691-0.691c0-0.381-0.31-0.69-0.691-0.69h-6.898
		c-0.38,0-0.69,0.31-0.69,0.69C25.714,10.771,26.024,11.082,26.404,11.082L26.404,11.082z M26.404,11.082"/>
	<path fill="#9B9B9C" d="M41.579,13.84H26.404c-0.38,0-0.69,0.306-0.69,0.69c0,0.381,0.31,0.687,0.69,0.687h15.174
		c0.385,0,0.69-0.306,0.69-0.687C42.269,14.146,41.963,13.84,41.579,13.84L41.579,13.84z M41.579,13.84"/>
	<path fill="#9B9B9C" d="M41.579,17.979H26.404c-0.38,0-0.69,0.307-0.69,0.688c0,0.383,0.31,0.69,0.69,0.69h15.174
		c0.385,0,0.69-0.307,0.69-0.69C42.269,18.286,41.963,17.979,41.579,17.979L41.579,17.979z M41.579,17.979"/>
</g>
</svg>
